<?xml version="1.0" encoding="UTF-8"?><svg id="a" xmlns="http://www.w3.org/2000/svg" viewBox="0 0 1080 170"><defs><style>.c{fill:#0043fa;}</style></defs><path class="c" d="M540.41,157.38l-18.15-138.02h25.83l13.41,119.88h3.55l17.35-119.88h44.95l17.35,119.88h3.55l13.41-119.88h25.83l-18.15,138.02h-44.95l-17.74-122.65h-3.55l-17.74,122.65h-44.95Z"/><path class="c" d="M704.53,157.38V19.36h88.72v23.66h-62.7v32.93h57.18v23.64h-57.18v34.12h63.89v23.66h-89.91Z"/><path class="c" d="M816.24,157.38V19.36h88.72v23.66h-62.7v32.93h57.18v23.64h-57.18v34.12h63.89v23.66h-89.91Z"/><path class="c" d="M925.53,157.38V19.36h26.02v54.8h3.55l44.76-54.8h33.32l-57.57,68.03,59.54,69.99h-34.31l-45.74-55.99h-3.55v55.99h-26.02Z"/><path class="c" d="M18.92,157.38V19.36h53.86l31.2,120.26h6.18V19.36h26.02V157.38h-52.98L52.02,37.09h-7.07v120.28H18.92Z"/><path class="c" d="M162.22,157.38V19.36h88.72v23.66h-62.7v32.93h57.18v23.64h-57.18v34.12h63.89v23.66h-89.91Z"/><path class="c" d="M262.17,157.38L298.45,19.36h48.4l36.29,138.02h-26.82l-7.49-30.36h-52.34l-7.49,30.36h-26.81Zm40.42-54.41h40.12l-16.76-67.24h-6.59l-16.76,67.24Z"/><g id="b"><path class="c" d="M399.33,19.36h64.6c16.31-.19,33.74,6.16,41.55,21.38,4.91,9.25,5.25,20.43,3.42,30.57-2.66,14.36-14.26,25.75-28.4,28.92-6.56,1.32-13.29,1.53-19.7,1.49l47.43,55.63h-34.89l-44.89-55.65h-3.11v55.6h-26.02V19.36Zm26.02,60.13h34.46c19.13-.01,22.06-12.5,22.06-18.35,0-13.41-12.13-18.78-22.38-18.32h-34.14v36.67Z"/></g><path class="c" d="M1054.73,158.37c-2,0-3.88-.38-5.63-1.13-1.76-.75-3.3-1.79-4.63-3.13-1.33-1.33-2.38-2.87-3.13-4.62-.76-1.75-1.13-3.63-1.12-5.64,0-2.01,.39-3.89,1.15-5.64,.76-1.75,1.8-3.29,3.13-4.63,1.33-1.33,2.87-2.38,4.62-3.13,1.75-.75,3.63-1.13,5.62-1.13s3.89,.38,5.64,1.13c1.75,.75,3.29,1.8,4.62,3.13,1.32,1.33,2.36,2.88,3.11,4.63,.75,1.75,1.13,3.63,1.14,5.64,0,2.01-.36,3.89-1.11,5.64-.75,1.75-1.79,3.29-3.12,4.62-1.33,1.34-2.87,2.38-4.63,3.13-1.76,.75-3.64,1.13-5.65,1.13Zm0-3.19c1.57,0,3.04-.29,4.41-.88,1.37-.59,2.58-1.4,3.62-2.43,1.04-1.04,1.85-2.24,2.43-3.61,.59-1.37,.87-2.84,.87-4.39,0-1.57-.31-3.04-.89-4.41-.59-1.37-1.4-2.58-2.43-3.62-1.04-1.04-2.24-1.85-3.6-2.43-1.37-.59-2.83-.88-4.4-.88s-3.02,.29-4.39,.88c-1.37,.59-2.57,1.4-3.6,2.44-1.04,1.04-1.85,2.25-2.44,3.62-.59,1.37-.89,2.84-.9,4.41,0,1.55,.28,3.01,.87,4.38,.59,1.37,1.4,2.57,2.44,3.61,1.04,1.04,2.25,1.85,3.62,2.44,1.37,.59,2.84,.89,4.41,.89Zm-8.03-11.33c0-1.5,.37-2.87,1.1-4.11,.73-1.24,1.72-2.22,2.96-2.96,1.24-.73,2.61-1.1,4.11-1.1,1.3,0,2.5,.28,3.61,.84,1.1,.56,2.02,1.32,2.74,2.29,.72,.97,1.17,2.06,1.35,3.28h-3.33c-.18-.94-.69-1.72-1.53-2.32-.83-.6-1.78-.9-2.85-.9-.92,0-1.75,.22-2.5,.67-.75,.45-1.35,1.05-1.8,1.8-.45,.75-.67,1.59-.67,2.5s.22,1.75,.67,2.5c.45,.75,1.05,1.35,1.8,1.8,.75,.45,1.59,.67,2.5,.67,1.06,0,1.96-.3,2.7-.9s1.2-1.37,1.4-2.32h3.33c-.17,1.22-.6,2.31-1.28,3.28-.68,.97-1.55,1.73-2.61,2.29-1.06,.56-2.24,.84-3.54,.84-1.5,0-2.87-.37-4.11-1.1-1.24-.73-2.22-1.72-2.96-2.96-.73-1.24-1.1-2.61-1.1-4.11Z"/></svg>